<svg xmlns="http://www.w3.org/2000/svg" viewBox="0 0 720 400" width="720" height="400">
<defs>
 <linearGradient id="bg" x1="0" y1="0" x2="1" y2="1"><stop offset="0" stop-color="#ffcf6b"/><stop offset="1" stop-color="#ef7b2a"/></linearGradient>
 <radialGradient id="glow" cx=".5" cy=".45" r=".6"><stop offset="0" stop-color="#fff" stop-opacity=".28"/><stop offset="1" stop-color="#fff" stop-opacity="0"/></radialGradient>
 <filter id="sh" x="-20%" y="-20%" width="140%" height="140%"><feDropShadow dx="0" dy="8" stdDeviation="9" flood-color="#000" flood-opacity=".25"/></filter>
</defs>
<rect width="720" height="400" fill="url(#bg)"/><rect width="720" height="400" fill="url(#glow)"/>
<ellipse cx="360" cy="340" rx="200" ry="26" fill="#000" opacity=".2"/><rect x="190" y="280" width="340" height="50" rx="22" fill="#d9912f"/><path d="M180 262 q30 26 60 0 q30 26 60 0 q30 26 60 0 q30 26 60 0 q30 26 60 0 q30 26 60 0 L540 280 L180 280Z" fill="#f2c22e"/><rect x="185" y="225" width="350" height="45" rx="20" fill="#5a2e14"/><rect x="195" y="210" width="330" height="20" rx="10" fill="#d8342a"/><path d="M175 205 q25 -22 50 0 q25 -22 50 0 q25 -22 50 0 q25 -22 50 0 q25 -22 50 0 q25 -22 50 0 q25 -22 50 0" stroke="#58b045" stroke-width="16" fill="none" stroke-linecap="round"/><path d="M190 200 Q360 40 530 200Z" fill="#e3a23e" filter="url(#sh)"/><circle cx="360.0" cy="140.0" r="4" fill="#fff4d6"/><circle cx="300.0" cy="115.7" r="4" fill="#fff4d6"/><circle cx="417.7" cy="142.7" r="4" fill="#fff4d6"/><circle cx="268.6" cy="160.9" r="4" fill="#fff4d6"/><circle cx="378.6" cy="113.2" r="4" fill="#fff4d6"/><circle cx="377.7" cy="150.4" r="4" fill="#fff4d6"/><circle cx="264.0" cy="129.6" r="4" fill="#fff4d6"/><circle cx="422.4" cy="130.5" r="4" fill="#fff4d6"/><circle cx="314.3" cy="175.8" r="4" fill="#fff4d6"/><circle cx="330.1" cy="111.7" r="4" fill="#fff4d6"/><circle cx="404.9" cy="148.0" r="4" fill="#fff4d6"/><circle cx="256.2" cy="148.9" r="4" fill="#fff4d6"/><circle cx="402.3" cy="118.4" r="4" fill="#fff4d6"/><circle cx="363.6" cy="147.3" r="4" fill="#fff4d6"/><circle cx="283.8" cy="120.1" r="4" fill="#fff4d6"/><circle cx="422.2" cy="138.4" r="4" fill="#fff4d6"/><circle cx="282.7" cy="167.5" r="4" fill="#fff4d6"/><circle cx="360.9" cy="111.5" r="4" fill="#fff4d6"/><circle cx="388.2" cy="150.5" r="4" fill="#fff4d6"/><circle cx="257.1" cy="136.6" r="4" fill="#fff4d6"/><circle cx="417.6" cy="125.6" r="4" fill="#fff4d6"/><circle cx="338.0" cy="178.9" r="4" fill="#fff4d6"/>
</svg>
